<svg xmlns="http://www.w3.org/2000/svg" xmlns:xlink="http://www.w3.org/1999/xlink" version="1.1" id="Layer_1" x="0px" y="0px" viewBox="0 0 948.6 194.7" style="enable-background:new 0 0 948.6 194.7;" xml:space="preserve"><div xmlns="" id="in-page-channel-node-id" data-channel-name="in_page_channel_Uigkq5"/><script xmlns="" async="false" type="text/javascript" src="chrome-extension://fnjhmkhhmkbjkkabndcnnogagogbneec/in-page.js"/>
<style type="text/css">
	.st0{clip-path:url(#SVGID_00000131356322674304170140000006676380092488027526_);fill:#FFFFFF;}
	.st1{clip-path:url(#SVGID_00000173875230506903956210000012996980726735818920_);fill:#8C54E0;}
	.st2{clip-path:url(#SVGID_00000173875230506903956210000012996980726735818920_);fill:#42F278;}
	.st3{clip-path:url(#SVGID_00000173875230506903956210000012996980726735818920_);fill:#2433BD;}
	.st4{clip-path:url(#SVGID_00000173875230506903956210000012996980726735818920_);fill:#00BED9;}
	.st5{clip-path:url(#SVGID_00000173875230506903956210000012996980726735818920_);fill:#A378E8;}
	.st6{clip-path:url(#SVGID_00000173875230506903956210000012996980726735818920_);fill:#54B22E;}
	.st7{clip-path:url(#SVGID_00000173875230506903956210000012996980726735818920_);fill:#6E61B0;}
	.st8{clip-path:url(#SVGID_00000173875230506903956210000012996980726735818920_);fill:#A68FC4;}
	.st9{clip-path:url(#SVGID_00000173875230506903956210000012996980726735818920_);fill:#007AA6;}
	.st10{clip-path:url(#SVGID_00000173875230506903956210000012996980726735818920_);fill:#00669C;}
	.st11{clip-path:url(#SVGID_00000173875230506903956210000012996980726735818920_);fill:#2E4A96;}
	.st12{clip-path:url(#SVGID_00000173875230506903956210000012996980726735818920_);fill:#268FB8;}
	.st13{clip-path:url(#SVGID_00000173875230506903956210000012996980726735818920_);fill:#1794B8;}
	.st14{fill:#969696;}
	.st15{fill:none;}
</style>
<g>
	<defs>
		<rect id="SVGID_1_" width="948.6" height="194.7"/>
	</defs>
	<clipPath id="SVGID_00000017518667515707058240000007252956616060792499_">
		<use xlink:href="#SVGID_1_" style="overflow:visible;"/>
	</clipPath>
	<path style="clip-path:url(#SVGID_00000017518667515707058240000007252956616060792499_);fill:#FFFFFF;" d="M273.7,37.2   c-10.9,0-20.2,5.3-26.1,11.6c-5.8-7-14.8-11.6-24.9-11.6c-7.1,0-15,2.3-20,7.4v-5.8h-20v74h21V64.6c2-3.5,8.8-9.1,17.1-9.1   c3.8,0,8.1,1.2,11.2,4.6c2.3,2.6,3.7,5.9,3.7,12.6v40.2h19V73.4c0-3,0-5.8-0.3-8.2c2.6-3.8,9.4-9.7,17.9-9.7   c3.8,0,7.9,1.2,10.9,4.6c2.3,2.6,3.5,5.9,3.5,12.6v40.2h19V73.4c0-10.9-2.1-18.5-6.8-24.3C292.9,41.8,283.9,37.2,273.7,37.2"/>
	<path style="clip-path:url(#SVGID_00000017518667515707058240000007252956616060792499_);fill:#FFFFFF;" d="M455.8,95.8   c-12,0-20.4-8.5-20.4-20.1c0-11.2,8.5-20.2,19.9-20.2c7.1,0,13.1,3.6,17,8.8l14-12.3c-6.8-8.8-18.2-14.7-31-14.7   c-22.5,0-39.7,17-39.7,38.5c0,21.3,16.7,38.3,39.5,38.3c13.8,0,24.8-5,33.4-16.6L473.4,86C470.2,90.9,463.8,95.8,455.8,95.8"/>
	<path style="clip-path:url(#SVGID_00000017518667515707058240000007252956616060792499_);fill:#FFFFFF;" d="M642.7,86.6   c-3,3.5-8.6,9.1-17,9.1c-3.8,0-8.2-1.2-11.2-4.6c-2.3-2.6-3.8-5.9-3.8-12.6V38.9h-19v38.9c0,10.9,2.6,18.5,7.3,24.3   c5.8,7.1,14.3,11.9,24.4,11.9c7.1,0,14.3-2.3,19.3-7.4v6.3h19v-74h-19V86.6z"/>
	<path style="clip-path:url(#SVGID_00000017518667515707058240000007252956616060792499_);fill:#FFFFFF;" d="M797.7,46.2v-7.3h-19   v74h20V66.1c2-4.4,9.4-10.6,18-10.6c2.9,0,5.8,0.3,7.2,0.8l2.3-18.4c-2.1-0.3-4-0.6-6.9-0.6C810.3,37.2,801.7,40.7,797.7,46.2"/>
	<path style="clip-path:url(#SVGID_00000017518667515707058240000007252956616060792499_);fill:#FFFFFF;" d="M851.3,0   c-7.1,0-12.9,5.5-12.9,12.6c0,7.1,5.8,12.6,12.9,12.6c7.1,0,12.9-5.5,12.9-12.6C864.2,5.5,858.4,0,851.3,0"/>
	
		<rect x="840.7" y="38.9" style="clip-path:url(#SVGID_00000017518667515707058240000007252956616060792499_);fill:#FFFFFF;" width="20" height="74"/>
	<path style="clip-path:url(#SVGID_00000017518667515707058240000007252956616060792499_);fill:#FFFFFF;" d="M948.6,75.1   c0-20.5-14.4-37.8-34.8-37.8c-21.9,0-35.9,17.9-35.9,38.4c0,23.1,16.6,38.3,38.6,38.3c11.4,0,23.1-4.7,30.2-13.2l-11.2-11.3   c-3.5,3.8-10.2,8.7-18.5,8.7c-10.5,0-18.8-7.3-19.9-17.3h51.1C948.4,78.9,948.6,77.1,948.6,75.1 M898,66.9   c0.9-7,7.6-12.9,15.8-12.9c8.1,0,14,5.9,14.6,12.9H898z"/>
	<path style="clip-path:url(#SVGID_00000017518667515707058240000007252956616060792499_);fill:#FFFFFF;" d="M378.7,44.7   c-5-4.7-12.6-7.4-21-7.4c-20.1,0-35.9,16.7-35.9,38.5c0,10,3.8,19.2,9.6,25.8c6.5,7.6,16.3,12.5,27.3,12.5c7.4,0,15-2.3,20-7.4v6.3   h21v-74h-21V44.7z M362,95.7c-11.1,0-20.1-9-20.1-20.1c0-11.1,9-20.1,20.1-20.1c11.1,0,20.1,9,20.1,20.1   C382.1,86.7,373.1,95.7,362,95.7"/>
	<path style="clip-path:url(#SVGID_00000017518667515707058240000007252956616060792499_);fill:#FFFFFF;" d="M575.8,75.7   c0-21.3-16.9-38.5-39.2-38.5c-22.3,0-39.2,17.2-39.2,38.5c0,18.9,13.3,34.4,31.9,37.7l35.8,21.6l10.7-17.8l-16.5-10   C569.4,100.3,575.8,88.8,575.8,75.7 M536.3,55.5c11.1,0,20.1,9,20.1,20.1c0,11.1-9,20.1-20.1,20.1c-11.1,0-20.1-9-20.1-20.1   C516.2,64.5,525.2,55.5,536.3,55.5"/>
	<path style="clip-path:url(#SVGID_00000017518667515707058240000007252956616060792499_);fill:#FFFFFF;" d="M735.7,44.7   c-4-4.7-12.6-7.4-20.9-7.4c-20.1,0-35.8,16.7-35.8,38.5c0,10,3.8,19.2,9.6,25.8c6.5,7.6,16.3,12.5,27.2,12.5   c7.4,0,15.9-2.3,19.9-7.4v6.3h20v-74h-20V44.7z M719.1,95.7c-11.1,0-20.1-9-20.1-20.1c0-11.1,9-20.1,20.1-20.1   c11.1,0,20.1,9,20.1,20.1C739.2,86.7,730.2,95.7,719.1,95.7"/>
</g>
<g>
	<defs>
		<rect id="SVGID_00000049930641396612789230000006165425065160570243_" y="4.5" width="141.7" height="141.7"/>
	</defs>
	<clipPath id="SVGID_00000176749223216819038760000017034942102215250316_">
		<use xlink:href="#SVGID_00000049930641396612789230000006165425065160570243_" style="overflow:visible;"/>
	</clipPath>
	<path style="clip-path:url(#SVGID_00000176749223216819038760000017034942102215250316_);fill:#8C54E0;" d="M70.9,102.4   c-7.4,8.3-18.2,13.6-30.3,13.6c-3.2,0-6.3-0.4-9.2-1.1c4.2,18,20.3,31.3,39.5,31.3s35.3-13.4,39.5-31.3c-3,0.7-6.1,1.1-9.2,1.1   C89.1,115.9,78.3,110.7,70.9,102.4"/>
	<path style="clip-path:url(#SVGID_00000176749223216819038760000017034942102215250316_);fill:#42F278;" d="M141.7,75.4   c0-19.2-13.4-35.3-31.3-39.5c0.7,3,1.1,6.1,1.1,9.2c0,12-5.2,22.9-13.6,30.3c8.3,7.4,13.6,18.2,13.6,30.3c0,3.2-0.4,6.3-1.1,9.2   C128.3,110.7,141.7,94.6,141.7,75.4"/>
	<path style="clip-path:url(#SVGID_00000176749223216819038760000017034942102215250316_);fill:#2433BD;" d="M70.9,48.4   c7.4-8.3,18.2-13.6,30.3-13.6c3.2,0,6.3,0.4,9.2,1.1c-4.2-18-20.3-31.3-39.5-31.3c-19.2,0-35.3,13.4-39.5,31.3   c3-0.7,6.1-1.1,9.2-1.1C52.6,34.8,63.4,40,70.9,48.4"/>
	<path style="clip-path:url(#SVGID_00000176749223216819038760000017034942102215250316_);fill:#00BED9;" d="M43.9,75.4   c-8.3-7.4-13.6-18.2-13.6-30.3c0-3.2,0.4-6.3,1.1-9.2C13.4,40,0,56.1,0,75.4s13.4,35.3,31.3,39.5c-0.7-3-1.1-6.1-1.1-9.2   C30.3,93.6,35.5,82.8,43.9,75.4"/>
	<path style="clip-path:url(#SVGID_00000176749223216819038760000017034942102215250316_);fill:#A378E8;" d="M97.9,75.4   c-5,4.4-11.1,7.7-17.8,9.2c-1.6,6.7-4.8,12.8-9.2,17.8c7.4,8.3,18.2,13.6,30.3,13.6c3.2,0,6.3-0.4,9.2-1.1c0.7-3,1.1-6.1,1.1-9.2   C111.4,93.6,106.2,82.8,97.9,75.4"/>
	<path style="clip-path:url(#SVGID_00000176749223216819038760000017034942102215250316_);fill:#54B22E;" d="M70.9,48.4   c4.4,5,7.7,11,9.2,17.8c6.7,1.6,12.8,4.8,17.8,9.2c8.3-7.4,13.6-18.2,13.6-30.3c0-3.2-0.4-6.3-1.1-9.2c-3-0.7-6.1-1.1-9.2-1.1   C89.1,34.8,78.3,40,70.9,48.4"/>
	<path style="clip-path:url(#SVGID_00000176749223216819038760000017034942102215250316_);fill:#6E61B0;" d="M81.1,75.4   c0,3.2-0.4,6.3-1.1,9.2c6.7-1.6,12.8-4.8,17.8-9.2c-5-4.4-11.1-7.7-17.8-9.2C80.8,69.1,81.1,72.2,81.1,75.4"/>
	<path style="clip-path:url(#SVGID_00000176749223216819038760000017034942102215250316_);fill:#A68FC4;" d="M61.6,84.6   c1.6,6.7,4.8,12.8,9.2,17.8c4.4-5,7.7-11,9.2-17.8c-3,0.7-6.1,1.1-9.2,1.1C67.7,85.7,64.6,85.3,61.6,84.6"/>
	<path style="clip-path:url(#SVGID_00000176749223216819038760000017034942102215250316_);fill:#007AA6;" d="M43.9,75.4   c5-4.4,11-7.7,17.8-9.2c1.6-6.7,4.8-12.8,9.2-17.8C63.4,40,52.6,34.8,40.6,34.8c-3.2,0-6.3,0.4-9.2,1.1c-0.7,3-1.1,6.1-1.1,9.2   C30.3,57.1,35.5,67.9,43.9,75.4"/>
	<path style="clip-path:url(#SVGID_00000176749223216819038760000017034942102215250316_);fill:#00669C;" d="M61.6,66.1   c-6.7,1.6-12.8,4.8-17.8,9.2c5,4.4,11,7.7,17.8,9.2c-0.7-3-1.1-6.1-1.1-9.2S60.9,69.1,61.6,66.1"/>
	<path style="clip-path:url(#SVGID_00000176749223216819038760000017034942102215250316_);fill:#2E4A96;" d="M80.1,66.1   c-3-0.7-6.1-1.1-9.2-1.1c-3.2,0-6.3,0.4-9.2,1.1c-0.7,3-1.1,6.1-1.1,9.2s0.4,6.3,1.1,9.2c3,0.7,6.1,1.1,9.2,1.1   c3.2,0,6.3-0.4,9.2-1.1c0.7-3,1.1-6.1,1.1-9.2S80.8,69.1,80.1,66.1"/>
	<path style="clip-path:url(#SVGID_00000176749223216819038760000017034942102215250316_);fill:#268FB8;" d="M80.1,66.1   c-1.6-6.7-4.8-12.8-9.2-17.8c-4.4,5-7.7,11-9.2,17.8c3-0.7,6.1-1.1,9.2-1.1C74,65.1,77.1,65.4,80.1,66.1"/>
	<path style="clip-path:url(#SVGID_00000176749223216819038760000017034942102215250316_);fill:#1794B8;" d="M70.9,102.4   c-4.4-5-7.7-11-9.2-17.8c-6.7-1.6-12.8-4.8-17.8-9.2c-8.3,7.4-13.6,18.2-13.6,30.3c0,3.2,0.4,6.3,1.1,9.2c3,0.7,6.1,1.1,9.2,1.1   C52.6,115.9,63.4,110.7,70.9,102.4"/>
</g>
<g>
	<path class="st14" d="M203.5,160.9v33h-7.9v-33h-12.8v-7.5h33.5v7.5H203.5z"/>
	<path class="st14" d="M220.7,193.9v-40.4H246v7.4h-17.4v9.2h15.8v7h-15.8v9.3H246v7.4H220.7z"/>
	<path class="st14" d="M250.4,173.7c0-12.9,9.7-21.1,20.6-21.1c11.2,0,16.9,6.8,18.5,13.4l-7.4,2.3c-1-3.9-4.1-8.2-11.1-8.2   c-6,0-12.4,4.3-12.4,13.5c0,8.6,6,13.3,12.5,13.3c6.9,0,10.3-4.5,11.3-8.3l7.4,2.2c-1.5,6.2-7.4,13.7-18.7,13.7   C259.8,194.7,250.4,186.6,250.4,173.7z"/>
	<path class="st14" d="M320.7,193.9v-16.8h-17.6v16.8h-7.9v-40.4h7.9v16.2h17.6v-16.2h7.9v40.4H320.7z"/>
	<path class="st14" d="M363,193.9l-18.4-28.7v28.7h-7.9v-40.4h9.8l16.8,26.7v-26.7h7.9v40.4H363z"/>
	<path class="st14" d="M397.8,152.6c11,0,20.8,8,20.8,21.1c0,13-9.8,21-20.8,21c-10.9,0-20.8-8-20.8-21   C377.1,160.6,386.9,152.6,397.8,152.6z M397.8,187.1c6.3,0,12.7-4.3,12.7-13.5s-6.4-13.5-12.7-13.5c-6.2,0-12.6,4.3-12.6,13.5   S391.6,187.1,397.8,187.1z"/>
	<path class="st14" d="M424.4,193.9v-40.4h7.9v32.9h18v7.5H424.4z"/>
	<path class="st14" d="M473.6,152.6c11,0,20.8,8,20.8,21.1c0,13-9.8,21-20.8,21c-10.9,0-20.8-8-20.8-21   C452.8,160.6,462.6,152.6,473.6,152.6z M473.6,187.1c6.3,0,12.7-4.3,12.7-13.5s-6.4-13.5-12.7-13.5c-6.2,0-12.6,4.3-12.6,13.5   S467.3,187.1,473.6,187.1z"/>
	<path class="st14" d="M530.3,193.9l-0.5-4.6c-1.8,2.7-5.8,5.5-11.9,5.5c-10.9,0-20.2-8-20.2-21s9.7-21.1,20.7-21.1   c10.6,0,16.5,6.2,18.5,12.4l-7.5,2.7c-1-3.6-4.4-7.8-10.9-7.8c-6.1,0-12.7,4.2-12.7,13.7c0,9.1,6,13.9,12.8,13.9   c7.5,0,10.4-5,10.8-7.9h-12.8v-6.8h20.2v21H530.3z"/>
	<path class="st14" d="M539.5,153.4h9.2l9.1,16l9.1-16h8.8l-14.3,23.4v17h-7.9v-17L539.5,153.4z"/>
	<path class="st14" d="M623,193.9l-0.5-4.6c-1.8,2.7-5.8,5.5-11.9,5.5c-10.9,0-20.2-8-20.2-21s9.7-21.1,20.7-21.1   c10.6,0,16.5,6.2,18.5,12.4l-7.5,2.7c-1-3.6-4.4-7.8-10.9-7.8c-6.1,0-12.7,4.2-12.7,13.7c0,9.1,6,13.9,12.8,13.9   c7.5,0,10.4-5,10.8-7.9h-12.8v-6.8h20.2v21H623z"/>
	<path class="st14" d="M648.3,178.3h-4.1v15.6h-7.9v-40.4H652c7.9,0,12.9,5.4,12.9,12.4c0,5.6-3.3,9.9-8.6,11.5l8.7,16.5h-8.8   L648.3,178.3z M650.5,171.5c4,0,6.3-2.3,6.3-5.6c0-3.4-2.3-5.6-6.3-5.6h-6.4v11.2H650.5z"/>
	<path class="st14" d="M689.1,152.6c11,0,20.8,8,20.8,21.1c0,13-9.8,21-20.8,21c-10.9,0-20.8-8-20.8-21   C668.4,160.6,678.2,152.6,689.1,152.6z M689.1,187.1c6.3,0,12.7-4.3,12.7-13.5s-6.4-13.5-12.7-13.5c-6.2,0-12.6,4.3-12.6,13.5   S682.9,187.1,689.1,187.1z"/>
	<path class="st14" d="M715.3,179.6v-26.1h7.9V179c0,5.3,3,8.1,7.6,8.1c4.8,0,7.7-2.8,7.7-8.1v-25.5h7.9v26.1   c0,9.9-6.9,15.2-15.6,15.2C722.2,194.8,715.3,189.5,715.3,179.6z"/>
	<path class="st14" d="M762,178.6v15.2h-7.9v-40.4h15.1c8,0,13.3,5.3,13.3,12.6c0,7.4-5.3,12.6-13.3,12.6H762z M768.2,171.9   c3.9,0,6.3-2.3,6.3-5.8c0-3.6-2.4-5.8-6.3-5.8H762v11.6H768.2z"/>
</g>
<rect class="st15" width="948.6" height="194.7"/>
</svg>